<svg width="14" height="14" viewBox="0 0 14 14" fill="none" xmlns="http://www.w3.org/2000/svg">
<path d="M10.052 5.6C10.108 6.062 10.15 6.524 10.15 7C10.15 7.476 10.108 7.938 10.052 8.4H12.418C12.53 7.952 12.6 7.483 12.6 7C12.6 6.517 12.53 6.048 12.418 5.6M8.813 1.708C9.233 2.485 9.555 3.325 9.779 4.2H11.844C11.1658 3.03221 10.0899 2.1476 8.813 1.708ZM8.638 5.6H5.362C5.292 6.062 5.25 6.524 5.25 7C5.25 7.476 5.292 7.945 5.362 8.4H8.638C8.701 7.945 8.75 7.476 8.75 7C8.75 6.524 8.701 6.062 8.638 5.6ZM7 1.428C6.419 2.268 5.95 3.199 5.663 4.2H8.337C8.05 3.199 7.581 2.268 7 1.428ZM4.2 9.8H2.156C2.8272 10.9709 3.90236 11.857 5.18 12.292C4.76 11.515 4.445 10.675 4.2 9.8ZM2.156 4.2H4.2C4.445 3.325 4.76 2.485 5.18 1.708C3.90504 2.14783 2.83139 3.0326 2.156 4.2ZM1.582 5.6C1.47 6.048 1.4 6.517 1.4 7C1.4 7.483 1.47 7.952 1.582 8.4H3.948C3.892 7.938 3.85 7.476 3.85 7C3.85 6.524 3.892 6.062 3.948 5.6M7 12.579C7.581 11.739 8.05 10.801 8.337 9.8H5.663C5.95 10.801 6.419 11.739 7 12.579ZM11.844 9.8H9.779C9.55992 10.667 9.2355 11.5039 8.813 12.292C10.101 11.851 11.172 10.962 11.844 9.8ZM7 14C3.129 14 0 10.85 0 7C0 5.14349 0.737498 3.36301 2.05025 2.05025C2.70026 1.40024 3.47194 0.884625 4.32122 0.532843C5.17049 0.181059 6.08075 0 7 0C8.85651 0 10.637 0.737497 11.9497 2.05025C13.2625 3.36301 14 5.14349 14 7C14 7.91925 13.8189 8.82951 13.4672 9.67878C13.1154 10.5281 12.5998 11.2997 11.9497 11.9497C11.2997 12.5998 10.5281 13.1154 9.67878 13.4672C8.8295 13.8189 7.91925 14 7 14Z" fill="white"/>
</svg>
